HIERARCHY
ROOT Hips
{
  OFFSET 3.13124 94.3669 -3.18751
  CHANNELS  6 Xposition Yposition Zposition Zrotation Xrotation Yrotation
  JOINT LeftUpLeg
  {
    OFFSET 8.64259 1.95398 -2.38835
    CHANNELS 3 Zrotation Xrotation Yrotation
    JOINT LeftLeg
    {
      OFFSET 43.7702 0 0
      CHANNELS 3 Zrotation Xrotation Yrotation
      JOINT LeftFoot
      {
        OFFSET 40.6238 0 0
        CHANNELS 3 Zrotation Xrotation Yrotation
        JOINT LeftToeBase
        {
          OFFSET 12.7242 0 0
          CHANNELS 3 Zrotation Xrotation Yrotation
          End Site
          {
            OFFSET 0 0 0
          }
        }
      }
    }
  }
  JOINT RightUpLeg
  {
    OFFSET -8.2249 1.95398 -2.59336
    CHANNELS 3 Zrotation Xrotation Yrotation
    JOINT RightLeg
    {
      OFFSET 43.5653 0 0
      CHANNELS 3 Zrotation Xrotation Yrotation
      JOINT RightFoot
      {
        OFFSET 40.6238 0 0
        CHANNELS 3 Zrotation Xrotation Yrotation
        JOINT RightToeBase
        {
          OFFSET 12.7242 0 0
          CHANNELS 3 Zrotation Xrotation Yrotation
          End Site
          {
            OFFSET 0 0 0
          }
        }
      }
    }
  }
  JOINT Spine
  {
    OFFSET 0.165834 0.87714 6.61349
    CHANNELS 3 Zrotation Xrotation Yrotation
    JOINT Spine1
    {
      OFFSET 7.38962 1.71661e-005 0
      CHANNELS 3 Zrotation Xrotation Yrotation
      JOINT Spine2
      {
        OFFSET 11.9445 1.14441e-005 0
        CHANNELS 3 Zrotation Xrotation Yrotation
        JOINT Spine3
        {
          OFFSET 14.7254 4.19617e-005 0
          CHANNELS 3 Zrotation Xrotation Yrotation
          JOINT Spine4
          {
            OFFSET 10.9679 0 0
            CHANNELS 3 Zrotation Xrotation Yrotation
            JOINT RightShoulder
            {
              OFFSET 2.46616 -1.6653 3.69651
              CHANNELS 3 Zrotation Xrotation Yrotation
              JOINT RightArm
              {
                OFFSET 13.0012 0 0
                CHANNELS 3 Zrotation Xrotation Yrotation
                JOINT RightForeArm
                {
                  OFFSET 28.7848 1.52588e-005 0
                  CHANNELS 3 Zrotation Xrotation Yrotation
                  JOINT RightHand
                  {
                    OFFSET 26.5688 1.52588e-005 0
                    CHANNELS 3 Zrotation Xrotation Yrotation
                    End Site
                    {
                      OFFSET 0 0 0
                    }
                  }
                }
              }
            }
            JOINT LeftShoulder
            {
              OFFSET 2.38034 -1.29275 -3.75231
              CHANNELS 3 Zrotation Xrotation Yrotation
              JOINT LeftArm
              {
                OFFSET 16.3182 6.10352e-005 0
                CHANNELS 3 Zrotation Xrotation Yrotation
                JOINT LeftForeArm
                {
                  OFFSET 27.0901 0 0
                  CHANNELS 3 Zrotation Xrotation Yrotation
                  JOINT LeftHand
                  {
                    OFFSET 24.5451 1.52588e-005 0
                    CHANNELS 3 Zrotation Xrotation Yrotation
                    End Site
                    {
                      OFFSET 0 0 0
                    }
                  }
                }
              }
            }
            JOINT Neck
            {
              OFFSET 5.0226 -0.0266342 0
              CHANNELS 3 Zrotation Xrotation Yrotation
              JOINT Head
              {
                OFFSET 6.69363 2.86102e-005 0
                CHANNELS 3 Zrotation Xrotation Yrotation
                End Site
                {
                  OFFSET 0 0 0
                }
              }
            }
          }
        }
      }
    }
  }
}
MOTION
Frames:	7
Frame Time:	0.0333333
0.906631 97.0946 -20.0633 146.536 -89.9986 146.558 -170.828 3.26138 91.3577 -10.0258 8.80353 3.50266 63.9428 0.508211 0.225502 28.7808 5.63953e-006 1.10137e-005 169.354 2.4834 93.0192 -10.0455 -10.2191 -1.9399 63.9121 -1.09305 -0.56059 28.7808 1.31426e-005 2.58097e-005 0.00171692 6.33801 -90.0218 14.1935 3.60029e-006 2.30302e-007 2.52251 0.000686771 -1.43437e-006 -20.0127 3.00098e-006 4.54592e-006 -1.59028e-015 -2.51393e-017 -1.65007e-018 100.866 -18.8892 -85.3625 12.4845 49.0009 -36.0123 -3.27233 0.00469605 -4.91075 -5.37983 -0.320016 -0.0162394 -78.9779 -22.0388 94.363 8.47938 -39.5502 -20.5181 0.551709 40.9567 -3.90828 -0.149393 -0.0193596 -0.0876435 1.75831 -0.0022889 -0.00624639 -7.41121 -0.000564001 0.00404663 
0.91265 97.0923 -20.0916 167.024 -89.9832 167.06 -170.841 3.24346 91.3633 -9.98038 8.79858 3.51596 63.9425 0.484558 0.213228 28.7808 5.63953e-006 1.10137e-005 169.363 2.51944 93.0386 -10.1167 -10.2314 -1.9571 63.8781 -1.13897 -0.585109 28.7808 1.31426e-005 2.58097e-005 0.00280473 6.33794 -90.0354 14.1935 3.60029e-006 2.30302e-007 2.52251 0.000686771 -1.43437e-006 -20.0127 3.00098e-006 4.54592e-006 -4.77083e-015 -2.44598e-017 -1.94126e-018 100.82 -18.8425 -85.4053 12.5262 48.9751 -36.1179 -3.27233 0.00469605 -4.91075 -5.37983 -0.320016 -0.0162394 -78.991 -21.9455 94.3923 8.40492 -39.5593 -20.6165 0.574546 41.0798 -3.87397 -0.136131 -0.0193595 -0.230848 1.8432 -0.039031 -0.100905 -7.42919 -0.0111393 0.0625609 
0.920728 97.0837 -20.1236 55.4968 -89.9774 55.5511 -170.871 3.2636 91.3608 -9.90984 8.75666 3.51595 63.9152 0.514712 0.231641 28.7808 5.63953e-006 1.10137e-005 169.383 2.64965 93.0752 -10.278 -10.2497 -1.98537 63.8096 -1.25327 -0.646622 28.7808 1.31426e-005 2.58097e-005 0.00449227 6.3378 -90.0559 14.1935 3.60029e-006 2.30302e-007 2.52251 0.000686771 -1.43437e-006 -20.0127 3.00098e-006 4.54592e-006 -4.77083e-015 -2.48481e-017 -1.94126e-018 100.832 -18.7666 -85.4128 12.5913 48.9173 -36.2427 -3.27233 0.00469605 -4.91075 -5.37983 -0.320016 -0.0162394 -78.9285 -21.8607 94.4985 8.25406 -39.525 -20.8253 0.587755 41.0364 -3.88709 -0.242589 -0.0193594 -0.296395 2.07607 -0.0737445 -0.120984 -7.62298 -0.0432297 0.0327403 
0.921286 97.094 -20.1471 164.946 -89.9191 164.985 -170.834 3.25215 91.3597 -10.0524 8.8279 3.53332 63.9394 0.457522 0.19677 28.7808 5.63953e-006 1.10137e-005 169.374 2.46865 93.0318 -10.072 -10.1979 -1.96408 63.8817 -1.0677 -0.54581 28.7808 1.31426e-005 2.58097e-005 0.00178962 6.338 -90.023 14.1935 3.60029e-006 2.30302e-007 2.52251 0.000686771 -1.43437e-006 -20.0127 3.00098e-006 4.54592e-006 -3.18055e-015 -2.79541e-017 2.71776e-018 100.736 -18.79 -85.4932 12.6081 48.9367 -36.3577 -3.27233 0.00469605 -4.91075 -5.37983 -0.320016 -0.0162394 -78.9848 -21.8033 94.5252 8.19453 -39.4982 -20.9105 0.556586 40.7175 -3.96501 -0.161011 -0.0193596 -0.0556802 1.97334 -0.0826577 -0.1952 -7.52452 -0.0770806 0.0694395 
0.921475 97.0875 -20.1682 127.716 -89.9199 127.735 -170.868 3.31978 91.3285 -10.098 8.80547 3.53108 63.9289 0.483783 0.210705 28.7808 5.63953e-006 1.10137e-005 169.564 2.52735 93.1307 -10.1188 -9.90751 -2.16899 63.9305 -0.950949 -0.480384 28.7808 1.31426e-005 2.58097e-005 0.0015729 6.33801 -90.02 14.1935 -2.66358e-005 -2.84875e-005 2.52253 0.000686771 -2.80926e-005 -20.0126 -1.74016e-005 -3.23398e-005 1.91032e-005 -2.01027e-005 -3.61261e-005 100.758 -18.6993 -85.5536 12.6681 48.8484 -36.3904 -3.27233 0.00469605 -4.91075 -5.37983 -0.320016 -0.0162394 -78.9071 -21.8658 94.6003 8.05138 -39.5351 -21.1895 0.598314 40.7892 -3.95124 -0.177863 -0.0193596 -0.136348 2.12924 -0.0945248 -0.10638 -7.70229 -0.0857533 -0.0507731 
0.933904 97.0803 -20.1923 111.14 -89.9204 111.187 -170.877 3.29139 91.3397 -9.95756 8.79008 3.52171 63.9174 0.503069 0.224041 28.7808 5.63953e-006 1.10137e-005 169.385 2.59856 93.0554 -10.1771 -10.1716 -1.9828 63.8569 -1.13998 -0.584496 28.7808 1.31426e-005 2.58097e-005 0.00380846 6.33789 -90.0443 14.1931 0.00061291 0.000563027 2.52212 0.000686771 0.000543996 -20.013 0.00041176 0.00071793 -0.000382666 0.000413396 0.000724746 100.726 -18.6853 -85.6777 12.6954 48.7903 -36.3629 -3.27233 0.00469605 -4.91075 -5.37983 -0.320016 -0.0162394 -78.847 -21.9407 94.7005 7.96788 -39.5452 -21.416 0.617221 40.8387 -3.9732 -0.238393 -0.0193596 -0.0794056 2.2276 -0.0988301 -0.0679859 -7.80232 -0.100023 -0.0845568 
0.93399 97.0833 -20.1986 135.161 -89.8365 135.184 -170.843 3.28191 91.3241 -10.1267 8.88913 3.54505 63.9822 0.534313 0.239967 28.7808 5.63953e-006 1.10137e-005 169.364 2.38657 92.9946 -9.92795 -10.0168 -1.93791 64.0086 -0.851891 -0.426811 28.7808 1.31426e-005 2.58097e-005 0.00649153 6.33804 -89.995 14.1827 0.0167177 0.0160509 2.51177 0.000686771 0.0152898 -20.0234 0.0111176 0.020331 -0.0107573 0.011117 0.0203258 100.709 -18.8308 -85.7604 12.666 48.7942 -36.2538 -3.27233 0.00469605 -4.91075 -5.37983 -0.320016 -0.0162394 -78.8749 -21.962 94.5868 7.98868 -39.5413 -21.4718 0.608336 40.9267 -3.98126 -0.205301 -0.0193596 -0.075465 2.12361 -0.109216 -0.088363 -7.71047 -0.0889581 -0.11665 
